<svg width="40" height="56" viewBox="0 0 40 56" fill="none" xmlns="http://www.w3.org/2000/svg">
<path d="M13.19 22.38C13 22.38 12.8 22.3 12.66 22.16C12.37 21.87 12.37 21.39 12.66 21.1L16.29 17.47C16.58 17.18 17.06 17.18 17.35 17.47C17.64 17.76 17.64 18.24 17.35 18.53L13.72 22.16C13.57 22.3 13.38 22.38 13.19 22.38Z" fill="#0C0C0C"/>
<path d="M26.81 22.38C26.62 22.38 26.43 22.31 26.28 22.16L22.65 18.53C22.36 18.24 22.36 17.76 22.65 17.47C22.94 17.18 23.42 17.18 23.71 17.47L27.34 21.1C27.63 21.39 27.63 21.87 27.34 22.16C27.2 22.3 27 22.38 26.81 22.38Z" fill="#0C0C0C"/>
<path d="M28.21 26.6C28.14 26.6 28.07 26.6 28 26.6H27.77H12C11.3 26.61 10.5 26.61 9.92 26.03C9.46 25.58 9.25 24.88 9.25 23.85C9.25 21.1 11.26 21.1 12.22 21.1H27.78C28.74 21.1 30.75 21.1 30.75 23.85C30.75 24.89 30.54 25.58 30.08 26.03C29.56 26.55 28.86 26.6 28.21 26.6ZM12.22 25.1H28.01C28.46 25.11 28.88 25.11 29.02 24.97C29.09 24.9 29.24 24.66 29.24 23.85C29.24 22.72 28.96 22.6 27.77 22.6H12.22C11.03 22.6 10.75 22.72 10.75 23.85C10.75 24.66 10.91 24.9 10.97 24.97C11.11 25.1 11.54 25.1 11.98 25.1H12.22Z" fill="#0C0C0C"/>
<path d="M17.76 34.3C17.35 34.3 17.01 33.96 17.01 33.55V30C17.01 29.59 17.35 29.25 17.76 29.25C18.17 29.25 18.51 29.59 18.51 30V33.55C18.51 33.97 18.17 34.3 17.76 34.3Z" fill="#0C0C0C"/>
<path d="M22.36 34.3C21.95 34.3 21.61 33.96 21.61 33.55V30C21.61 29.59 21.95 29.25 22.36 29.25C22.77 29.25 23.11 29.59 23.11 30V33.55C23.11 33.97 22.77 34.3 22.36 34.3Z" fill="#0C0C0C"/>
<path d="M22.89 38.75H16.86C13.28 38.75 12.48 36.62 12.17 34.77L10.76 26.12C10.69 25.71 10.97 25.33 11.38 25.26C11.79 25.19 12.17 25.47 12.24 25.88L13.65 34.52C13.94 36.29 14.54 37.25 16.86 37.25H22.89C25.46 37.25 25.75 36.35 26.08 34.61L27.76 25.86C27.84 25.45 28.23 25.18 28.64 25.27C29.05 25.35 29.31 25.74 29.23 26.15L27.55 34.9C27.16 36.93 26.51 38.75 22.89 38.75Z" fill="#0C0C0C"/>
</svg>

