<svg width="32" height="32" viewBox="0 0 32 32" fill="none" xmlns="http://www.w3.org/2000/svg">
<path fill-rule="evenodd" clip-rule="evenodd" d="M24 5.33317H8.00002C6.52726 5.33317 5.33335 6.52708 5.33335 7.99984V23.9998C5.33335 25.4726 6.52726 26.6665 8.00002 26.6665H24C25.4728 26.6665 26.6667 25.4726 26.6667 23.9998V7.99984C26.6667 6.52708 25.4728 5.33317 24 5.33317ZM8.00002 2.6665C5.0545 2.6665 2.66669 5.05432 2.66669 7.99984V23.9998C2.66669 26.9453 5.0545 29.3332 8.00002 29.3332H24C26.9455 29.3332 29.3334 26.9453 29.3334 23.9998V7.99984C29.3334 5.05432 26.9455 2.6665 24 2.6665H8.00002Z" fill="white"/>
<path fill-rule="evenodd" clip-rule="evenodd" d="M15.8889 13.3335C15.8889 11.1244 17.6797 9.3335 19.8889 9.3335H22.6666V12.0002H19.8889C19.1525 12.0002 18.5556 12.5971 18.5556 13.3335V16.0002H22.6666V18.6668H18.5556V26.6668H15.8889V18.6668H13.3333V16.0002H15.8889V13.3335Z" fill="white"/>
</svg>
