<svg width="20" height="20" viewBox="0 0 20 20" fill="none" xmlns="http://www.w3.org/2000/svg">
<path d="M8.99212 12.6417C8.82546 12.6417 8.66712 12.575 8.55046 12.4583L6.53379 10.4417C6.29212 10.2 6.29212 9.79999 6.53379 9.55833C6.77546 9.31666 7.17546 9.31666 7.41712 9.55833L8.99212 11.1333L12.5755 7.54999C12.8171 7.30833 13.2171 7.30833 13.4588 7.54999C13.7005 7.79166 13.7005 8.19166 13.4588 8.43333L9.43379 12.4583C9.31712 12.575 9.15879 12.6417 8.99212 12.6417Z" fill="#0C68F4"/>
<path d="M10.0001 18.9583C9.47507 18.9583 8.95006 18.7833 8.54173 18.4333L7.22506 17.3C7.09173 17.1833 6.7584 17.0667 6.5834 17.0667H5.15006C3.91673 17.0667 2.91673 16.0667 2.91673 14.8333V13.4083C2.91673 13.2333 2.80007 12.9083 2.6834 12.775L1.5584 11.45C0.875065 10.6417 0.875065 9.36666 1.5584 8.55832L2.6834 7.23332C2.80007 7.09999 2.91673 6.77499 2.91673 6.59999V5.16666C2.91673 3.93332 3.91673 2.93332 5.15006 2.93332H6.59173C6.76673 2.93332 7.10007 2.80832 7.2334 2.69999L8.55007 1.56666C9.36673 0.866656 10.6417 0.866656 11.4584 1.56666L12.7751 2.69999C12.9084 2.81666 13.2417 2.93332 13.4167 2.93332H14.8334C16.0667 2.93332 17.0667 3.93332 17.0667 5.16666V6.58332C17.0667 6.75832 17.1917 7.09166 17.3084 7.22499L18.4417 8.54166C19.1417 9.35832 19.1417 10.6333 18.4417 11.45L17.3084 12.7667C17.1917 12.9 17.0667 13.2333 17.0667 13.4083V14.825C17.0667 16.0583 16.0667 17.0583 14.8334 17.0583H13.4167C13.2417 17.0583 12.9084 17.1833 12.7751 17.2917L11.4584 18.425C11.0501 18.7833 10.5251 18.9583 10.0001 18.9583ZM5.15006 4.18332C4.6084 4.18332 4.16673 4.62499 4.16673 5.16666V6.59166C4.16673 7.06666 3.94173 7.67499 3.6334 8.03332L2.5084 9.35832C2.21673 9.69999 2.21673 10.2917 2.5084 10.6333L3.6334 11.9583C3.94173 12.325 4.16673 12.925 4.16673 13.4V14.825C4.16673 15.3667 4.6084 15.8083 5.15006 15.8083H6.59173C7.07506 15.8083 7.6834 16.0333 8.05006 16.35L9.36673 17.4833C9.7084 17.775 10.3084 17.775 10.6501 17.4833L11.9667 16.35C12.3334 16.0417 12.9417 15.8083 13.4251 15.8083H14.8417C15.3834 15.8083 15.8251 15.3667 15.8251 14.825V13.4083C15.8251 12.925 16.0501 12.3167 16.3667 11.95L17.5001 10.6333C17.7917 10.2917 17.7917 9.69166 17.5001 9.34999L16.3667 8.03332C16.0501 7.66666 15.8251 7.05832 15.8251 6.57499V5.16666C15.8251 4.62499 15.3834 4.18332 14.8417 4.18332H13.4251C12.9417 4.18332 12.3334 3.95832 11.9667 3.64166L10.6501 2.50832C10.3084 2.21666 9.7084 2.21666 9.36673 2.50832L8.05006 3.64999C7.6834 3.95832 7.06673 4.18332 6.59173 4.18332H5.15006Z" fill="#0C68F4"/>
</svg>
