<svg width="20" height="20" viewBox="0 0 20 20" fill="none" xmlns="http://www.w3.org/2000/svg">
<path d="M10 11.8084C8.22502 11.8084 6.77502 10.3667 6.77502 8.58337C6.77502 6.80003 8.22502 5.3667 10 5.3667C11.775 5.3667 13.225 6.80837 13.225 8.5917C13.225 10.375 11.775 11.8084 10 11.8084ZM10 6.6167C8.91669 6.6167 8.02502 7.50003 8.02502 8.5917C8.02502 9.68337 8.90836 10.5667 10 10.5667C11.0917 10.5667 11.975 9.68337 11.975 8.5917C11.975 7.50003 11.0834 6.6167 10 6.6167Z" fill="#CBCBCB"/>
<path d="M9.99984 18.9665C8.76651 18.9665 7.52484 18.4998 6.55818 17.5748C4.09984 15.2082 1.38318 11.4332 2.40818 6.9415C3.33318 2.8665 6.89151 1.0415 9.99984 1.0415C9.99984 1.0415 9.99984 1.0415 10.0082 1.0415C13.1165 1.0415 16.6748 2.8665 17.5998 6.94984C18.6165 11.4415 15.8998 15.2082 13.4415 17.5748C12.4748 18.4998 11.2332 18.9665 9.99984 18.9665ZM9.99984 2.2915C7.57484 2.2915 4.45818 3.58317 3.63318 7.2165C2.73318 11.1415 5.19984 14.5248 7.43318 16.6665C8.87484 18.0582 11.1332 18.0582 12.5748 16.6665C14.7998 14.5248 17.2665 11.1415 16.3832 7.2165C15.5498 3.58317 12.4248 2.2915 9.99984 2.2915Z" fill="#CBCBCB"/>
</svg>
