<svg width="56" height="63" viewBox="0 0 56 63" fill="none" xmlns="http://www.w3.org/2000/svg">
<path d="M23.1649 30.2088C22.8672 30.2088 22.626 30.4501 22.626 30.7478C22.626 31.0454 22.8672 31.2867 23.1649 31.2867V30.7478V30.2088ZM23.1649 30.7478V31.2867H36.4036V30.7478V30.2088H23.1649V30.7478ZM37.2659 29.8855H37.8049V17.3736H37.2659H36.727V29.8855H37.2659ZM36.4036 30.7478V31.2867C37.1775 31.2867 37.8049 30.6594 37.8049 29.8855H37.2659H36.727C36.727 30.0641 36.5822 30.2088 36.4036 30.2088V30.7478Z" fill="#0C68F4"/>
<path d="M18.6737 36.0048C18.3761 36.0048 18.1348 36.2461 18.1348 36.5437C18.1348 36.8414 18.3761 37.0827 18.6737 37.0827V36.5437V36.0048ZM18.6737 36.5437V37.0827H50.3746V36.5437V36.0048H18.6737V36.5437ZM51.2369 35.6814H51.7758V30.7289H51.2369H50.6979V35.6814H51.2369ZM50.3746 36.5437V37.0827C51.1485 37.0827 51.7758 36.4553 51.7758 35.6814H51.2369H50.6979C50.6979 35.86 50.5532 36.0048 50.3746 36.0048V36.5437Z" fill="#0C68F4"/>
<path d="M17.8464 41.6542C17.5487 41.6542 17.3074 41.8955 17.3074 42.1931C17.3074 42.4908 17.5487 42.7321 17.8464 42.7321V42.1931V41.6542ZM17.8464 42.1931V42.7321H49.8281V42.1931V41.6542H17.8464V42.1931Z" fill="#0C68F4"/>
<path d="M22.4557 47.3272C22.1581 47.3272 21.9168 47.5685 21.9168 47.8662C21.9168 48.1638 22.1581 48.4051 22.4557 48.4051V47.8662V47.3272ZM22.4557 47.8662V48.4051H38.2692V47.8662V47.3272H22.4557V47.8662ZM39.1315 48.7285H38.5926V54.2724H39.1315H39.6705V48.7285H39.1315ZM39.9939 55.1347V55.6737H43.3892V55.1347V54.5958H39.9939V55.1347ZM39.1315 54.2724H38.5926C38.5926 55.0463 39.22 55.6737 39.9939 55.6737V55.1347V54.5958C39.8153 54.5958 39.6705 54.451 39.6705 54.2724H39.1315ZM38.2692 47.8662V48.4051C38.4478 48.4051 38.5926 48.5499 38.5926 48.7285H39.1315H39.6705C39.6705 47.9546 39.0431 47.3272 38.2692 47.3272V47.8662Z" fill="#0C68F4"/>
<mask id="path-5-inside-1_42_2017" fill="white">
<path d="M40.3801 14.6352C40.3801 16.3212 39.0134 17.688 37.3273 17.688C35.6413 17.688 34.2746 16.3212 34.2746 14.6352C34.2746 12.9492 35.6413 11.5824 37.3273 11.5824C39.0134 11.5824 40.3801 12.9492 40.3801 14.6352ZM35.4957 14.6352C35.4957 15.6468 36.3157 16.4669 37.3273 16.4669C38.339 16.4669 39.159 15.6468 39.159 14.6352C39.159 13.6236 38.339 12.8035 37.3273 12.8035C36.3157 12.8035 35.4957 13.6236 35.4957 14.6352Z"/>
</mask>
<path d="M40.3801 14.6352C40.3801 16.3212 39.0134 17.688 37.3273 17.688C35.6413 17.688 34.2746 16.3212 34.2746 14.6352C34.2746 12.9492 35.6413 11.5824 37.3273 11.5824C39.0134 11.5824 40.3801 12.9492 40.3801 14.6352ZM35.4957 14.6352C35.4957 15.6468 36.3157 16.4669 37.3273 16.4669C38.339 16.4669 39.159 15.6468 39.159 14.6352C39.159 13.6236 38.339 12.8035 37.3273 12.8035C36.3157 12.8035 35.4957 13.6236 35.4957 14.6352Z" fill="#F45E0C" stroke="#F45E0C" stroke-width="0.472752" mask="url(#path-5-inside-1_42_2017)"/>
<mask id="path-6-inside-2_42_2017" fill="white">
<path d="M54.3263 27.7813C54.3263 29.4673 52.9596 30.8341 51.2735 30.8341C49.5875 30.8341 48.2207 29.4673 48.2207 27.7813C48.2207 26.0953 49.5875 24.7285 51.2735 24.7285C52.9596 24.7285 54.3263 26.0953 54.3263 27.7813ZM49.4419 27.7813C49.4419 28.7929 50.2619 29.613 51.2735 29.613C52.2852 29.613 53.1052 28.7929 53.1052 27.7813C53.1052 26.7697 52.2852 25.9496 51.2735 25.9496C50.2619 25.9496 49.4419 26.7697 49.4419 27.7813Z"/>
</mask>
<path d="M54.3263 27.7813C54.3263 29.4673 52.9596 30.8341 51.2735 30.8341C49.5875 30.8341 48.2207 29.4673 48.2207 27.7813C48.2207 26.0953 49.5875 24.7285 51.2735 24.7285C52.9596 24.7285 54.3263 26.0953 54.3263 27.7813ZM49.4419 27.7813C49.4419 28.7929 50.2619 29.613 51.2735 29.613C52.2852 29.613 53.1052 28.7929 53.1052 27.7813C53.1052 26.7697 52.2852 25.9496 51.2735 25.9496C50.2619 25.9496 49.4419 26.7697 49.4419 27.7813Z" fill="#F45E0C" stroke="#F45E0C" stroke-width="0.472752" mask="url(#path-6-inside-2_42_2017)"/>
<mask id="path-7-inside-3_42_2017" fill="white">
<path d="M55.7446 42.0549C55.7446 43.7409 54.3778 45.1077 52.6918 45.1077C51.0057 45.1077 49.639 43.7409 49.639 42.0549C49.639 40.3689 51.0057 39.0021 52.6918 39.0021C54.3778 39.0021 55.7446 40.3689 55.7446 42.0549ZM50.8601 42.0549C50.8601 43.0665 51.6802 43.8866 52.6918 43.8866C53.7034 43.8866 54.5234 43.0665 54.5234 42.0549C54.5234 41.0433 53.7034 40.2232 52.6918 40.2232C51.6802 40.2232 50.8601 41.0433 50.8601 42.0549Z"/>
</mask>
<path d="M55.7446 42.0549C55.7446 43.7409 54.3778 45.1077 52.6918 45.1077C51.0057 45.1077 49.639 43.7409 49.639 42.0549C49.639 40.3689 51.0057 39.0021 52.6918 39.0021C54.3778 39.0021 55.7446 40.3689 55.7446 42.0549ZM50.8601 42.0549C50.8601 43.0665 51.6802 43.8866 52.6918 43.8866C53.7034 43.8866 54.5234 43.0665 54.5234 42.0549C54.5234 41.0433 53.7034 40.2232 52.6918 40.2232C51.6802 40.2232 50.8601 41.0433 50.8601 42.0549Z" fill="#F45E0C" stroke="#F45E0C" stroke-width="0.472752" mask="url(#path-7-inside-3_42_2017)"/>
<mask id="path-8-inside-4_42_2017" fill="white">
<path d="M49.3625 55.0556C49.3625 56.7416 47.9957 58.1084 46.3097 58.1084C44.6237 58.1084 43.2569 56.7416 43.2569 55.0556C43.2569 53.3695 44.6237 52.0028 46.3097 52.0028C47.9957 52.0028 49.3625 53.3695 49.3625 55.0556ZM44.478 55.0556C44.478 56.0672 45.2981 56.8872 46.3097 56.8872C47.3213 56.8872 48.1414 56.0672 48.1414 55.0556C48.1414 54.044 47.3213 53.2239 46.3097 53.2239C45.2981 53.2239 44.478 54.044 44.478 55.0556Z"/>
</mask>
<path d="M49.3625 55.0556C49.3625 56.7416 47.9957 58.1084 46.3097 58.1084C44.6237 58.1084 43.2569 56.7416 43.2569 55.0556C43.2569 53.3695 44.6237 52.0028 46.3097 52.0028C47.9957 52.0028 49.3625 53.3695 49.3625 55.0556ZM44.478 55.0556C44.478 56.0672 45.2981 56.8872 46.3097 56.8872C47.3213 56.8872 48.1414 56.0672 48.1414 55.0556C48.1414 54.044 47.3213 53.2239 46.3097 53.2239C45.2981 53.2239 44.478 54.044 44.478 55.0556Z" fill="#F45E0C" stroke="#F45E0C" stroke-width="0.472752" mask="url(#path-8-inside-4_42_2017)"/>
<path d="M31.4103 58.1485H4.2577C2.82896 58.1485 1.67075 56.9903 1.67075 55.5616V20.5457C1.67075 19.6726 2.11111 18.8585 2.84179 18.3806L26.1724 3.12292C26.9799 2.59486 28.0141 2.56001 28.8553 3.03252L44.9484 12.0725" stroke="#0C68F4" stroke-width="1.72464" stroke-linecap="round"/>
</svg>

