<svg width="32" height="24" viewBox="0 0 32 24" fill="none" xmlns="http://www.w3.org/2000/svg">
<g style="mix-blend-mode:luminosity">
<g clip-path="url(#clip0_64_1790)">
<path d="M0 0H32V24H0V0Z" fill="white"/>
<path d="M28.4444 0H3.55556C1.59188 0 0 1.79086 0 4V20C0 22.2091 1.59188 24 3.55556 24H28.4444C30.4081 24 32 22.2091 32 20V4C32 1.79086 30.4081 0 28.4444 0Z" fill="white"/>
<path d="M28.4442 0.5H3.55528C1.83706 0.5 0.444168 2.067 0.444168 4V20C0.444168 21.933 1.83706 23.5 3.55528 23.5H28.4442C30.1624 23.5 31.5553 21.933 31.5553 20V4C31.5553 2.067 30.1624 0.5 28.4442 0.5Z" stroke="#333333" stroke-opacity="0.07" stroke-width="0.970471"/>
<path d="M7.12246 8.612C6.90583 8.40202 6.64624 8.24154 6.36157 8.14162C6.07691 8.04171 5.77395 8.00475 5.47362 8.03327H3.28972C3.21339 8.03475 3.13999 8.06284 3.08217 8.11268C3.02435 8.16252 2.98575 8.23099 2.97305 8.30626L2.00122 14.0717C1.99813 14.0993 2.00093 14.1273 2.00941 14.1537C2.01789 14.1802 2.03188 14.2044 2.05046 14.225C2.06902 14.2457 2.09175 14.2622 2.11714 14.2734C2.14253 14.2847 2.17001 14.2903 2.19777 14.2901H3.28972C3.35504 14.2873 3.41803 14.265 3.47057 14.2261C3.52311 14.1871 3.5628 14.1334 3.58455 14.0717L3.82477 12.4993C3.83289 12.4241 3.86864 12.3544 3.92512 12.3041C3.98161 12.2536 4.05479 12.2259 4.13052 12.2263H4.84029C5.15424 12.2626 5.47231 12.234 5.77469 12.142C6.07708 12.0501 6.35733 11.897 6.59801 11.6921C6.83869 11.4873 7.03466 11.2352 7.17373 10.9514C7.31279 10.6676 7.39197 10.3582 7.40637 10.0424C7.46789 9.79784 7.47433 9.54268 7.42522 9.29531C7.37613 9.04794 7.27272 8.81455 7.12246 8.612ZM5.73568 10.1298C5.61557 10.9378 4.99316 10.9378 4.40351 10.9378H4.065L4.29431 9.42004C4.30178 9.3756 4.3243 9.33507 4.35809 9.30525C4.39189 9.27544 4.43491 9.25813 4.47994 9.25625H4.63282C5.03684 9.25625 5.42994 9.25625 5.61557 9.48556C5.68354 9.5766 5.72972 9.68202 5.75055 9.79369C5.77137 9.90539 5.76628 10.0204 5.73568 10.1298Z" fill="#253B80"/>
<path d="M12.222 10.0967H11.13C11.0856 10.0991 11.0429 10.1151 11.0078 10.1425C10.9727 10.1698 10.9467 10.2071 10.9335 10.2496V10.5663L10.857 10.4462C10.6917 10.2799 10.4909 10.1531 10.2697 10.0756C10.0483 9.99804 9.81235 9.97161 9.57944 9.99847C8.98203 10.0123 8.40953 10.2406 7.96652 10.6415C7.52349 11.0425 7.23943 11.5893 7.1662 12.1824C7.11097 12.4736 7.11844 12.7732 7.18811 13.0613C7.25777 13.3493 7.38804 13.6193 7.57022 13.853C7.74104 14.0422 7.95287 14.1896 8.18939 14.2843C8.42601 14.3789 8.68109 14.4181 8.93519 14.399C9.212 14.402 9.48662 14.3484 9.74203 14.2413C9.99733 14.1342 10.2282 13.9761 10.4202 13.7766V14.0933C10.4171 14.1437 10.4336 14.1934 10.466 14.232C10.4985 14.2706 10.5447 14.2953 10.595 14.3007H11.5668C11.6427 14.3042 11.7171 14.2793 11.7757 14.2309C11.8342 14.1825 11.8726 14.1139 11.8835 14.0387L12.4622 10.3151C12.4744 10.2824 12.4766 10.2468 12.4684 10.2127C12.4602 10.1788 12.442 10.148 12.4161 10.1245C12.3902 10.101 12.3579 10.0857 12.3233 10.0808C12.2887 10.0759 12.2533 10.0815 12.222 10.0967ZM9.49208 13.2525C9.35854 13.2599 9.2251 13.2383 9.10073 13.1894C8.97625 13.1403 8.864 13.065 8.7714 12.9686C8.69158 12.8577 8.63501 12.7319 8.60498 12.5987C8.57496 12.4655 8.57212 12.3276 8.59669 12.1933C8.63119 11.895 8.77336 11.6195 8.99645 11.4184C9.21964 11.2174 9.50835 11.1047 9.80875 11.1013C9.94404 11.0952 10.079 11.1195 10.2038 11.1724C10.3285 11.2253 10.4398 11.3055 10.5294 11.4071C10.6188 11.5107 10.6821 11.634 10.7144 11.7669C10.7467 11.8998 10.747 12.0385 10.7151 12.1714C10.6824 12.4716 10.539 12.7488 10.3128 12.9487C10.0865 13.1486 9.7939 13.257 9.49208 13.2525Z" fill="#253B80"/>
<path d="M17.9655 10.0967H16.8735C16.8214 10.0961 16.7699 10.1088 16.724 10.1336C16.6782 10.1585 16.6394 10.1947 16.6114 10.2387L15.1155 12.4226L14.4821 10.2933C14.4616 10.2279 14.4211 10.1705 14.3662 10.1295C14.3114 10.0883 14.245 10.0654 14.1764 10.064H13.0845C13.0544 10.0639 13.0247 10.071 12.998 10.0848C12.9712 10.0987 12.9483 10.1189 12.9311 10.1436C12.9139 10.1684 12.903 10.1969 12.8993 10.2268C12.8955 10.2566 12.8992 10.2869 12.9097 10.3151L14.1 13.853L13.008 15.4473C12.9878 15.4752 12.9757 15.5082 12.9731 15.5426C12.9705 15.5769 12.9776 15.6114 12.9934 15.642C13.0092 15.6725 13.0334 15.6982 13.0629 15.7159C13.0925 15.7336 13.1265 15.7426 13.1609 15.7421H14.2528C14.3042 15.745 14.3554 15.7345 14.4013 15.7115C14.4473 15.6885 14.4865 15.6539 14.5149 15.6111L18.1183 10.3588C18.1308 10.3318 18.1365 10.3021 18.1349 10.2724C18.1334 10.2427 18.1249 10.2139 18.1099 10.1881C18.0949 10.1625 18.074 10.1407 18.0489 10.1249C18.0237 10.109 17.9952 10.0993 17.9655 10.0967Z" fill="#253B80"/>
<path d="M23.2069 8.61159C22.9899 8.4022 22.7302 8.24211 22.4456 8.14224C22.1611 8.04236 21.8584 8.00505 21.5581 8.03285H19.2978C19.2232 8.03265 19.1513 8.06069 19.0966 8.11134C19.0419 8.162 19.0084 8.23149 19.0029 8.30584L18.0748 14.0713C18.0716 14.0989 18.0745 14.1269 18.083 14.1533C18.0914 14.1797 18.1055 14.2041 18.124 14.2247C18.1426 14.2452 18.1653 14.2617 18.1906 14.273C18.2161 14.2842 18.2435 14.2899 18.2713 14.2897H19.4288C19.4812 14.2874 19.531 14.2662 19.5691 14.2301C19.6072 14.194 19.631 14.1454 19.6363 14.0931L19.8983 12.4443C19.9086 12.3699 19.9451 12.3017 20.0011 12.2517C20.057 12.2017 20.129 12.1733 20.2041 12.1713H20.9248C21.2382 12.2044 21.5549 12.1734 21.856 12.0802C22.157 11.9871 22.436 11.8338 22.6759 11.6296C22.9159 11.4253 23.1119 11.1745 23.252 10.8922C23.392 10.6099 23.4733 10.3021 23.4909 9.9874C23.5393 9.75088 23.5391 9.50685 23.4903 9.27031C23.4415 9.03378 23.3451 8.80965 23.2069 8.61159ZM21.8093 10.1621C21.7001 10.9702 21.0776 10.9702 20.4771 10.9702H20.1386L20.3788 9.45239C20.3801 9.42942 20.3861 9.40696 20.3962 9.38629C20.4062 9.36563 20.4203 9.34715 20.4375 9.33193C20.4548 9.31671 20.4749 9.30505 20.4966 9.29761C20.5185 9.29018 20.5414 9.28711 20.5644 9.28859H20.7282C21.1322 9.28859 21.5144 9.28859 21.711 9.5179C21.7704 9.60674 21.8099 9.70742 21.8268 9.8129C21.8439 9.91849 21.8379 10.0264 21.8093 10.1294V10.1621Z" fill="#179BD7"/>
<path d="M28.2953 10.0973H27.2033C27.1579 10.0961 27.1136 10.1107 27.0778 10.1385C27.0419 10.1665 27.0168 10.2058 27.0068 10.2501V10.5668L26.9303 10.4467C26.7676 10.2798 26.5689 10.1526 26.3492 10.075C26.1295 9.99735 25.895 9.97137 25.6637 9.99899C25.0663 10.0129 24.4938 10.2411 24.0508 10.6419C23.6078 11.0429 23.3236 11.5899 23.2505 12.1829C23.1892 12.4739 23.1937 12.7748 23.2637 13.0639C23.3336 13.3529 23.467 13.6226 23.6545 13.8536C23.8226 14.043 24.0323 14.191 24.2673 14.2858C24.5022 14.3804 24.7559 14.4194 25.0085 14.3995C25.287 14.4021 25.563 14.3482 25.8201 14.2412C26.0772 14.1343 26.31 13.9764 26.5045 13.7771V14.0938C26.5013 14.1199 26.5038 14.1464 26.5118 14.1715C26.5197 14.1967 26.5329 14.2198 26.5505 14.2394C26.568 14.259 26.5895 14.2746 26.6136 14.2853C26.6377 14.296 26.6638 14.3014 26.6901 14.3013H27.662C27.736 14.302 27.8078 14.2758 27.8641 14.2277C27.9203 14.1794 27.9571 14.1125 27.9677 14.0392L28.5027 10.3157C28.5082 10.2867 28.5067 10.2569 28.4984 10.2287C28.4901 10.2005 28.4751 10.1747 28.4549 10.1533C28.4346 10.132 28.4096 10.1158 28.3819 10.106C28.354 10.0963 28.3244 10.0932 28.2953 10.0973ZM25.5763 13.253C25.441 13.2612 25.3057 13.2401 25.1794 13.1911C25.0532 13.1421 24.939 13.0664 24.8447 12.9691C24.7645 12.8586 24.7084 12.7325 24.6802 12.5989C24.652 12.4653 24.6522 12.3272 24.6809 12.1938C24.7106 11.8955 24.8499 11.6187 25.0716 11.417C25.2935 11.2153 25.5822 11.1031 25.8821 11.1019C26.0211 11.0896 26.161 11.1112 26.2897 11.165C26.4185 11.2187 26.5323 11.3029 26.6214 11.4102C26.7105 11.5176 26.7723 11.645 26.8014 11.7815C26.8304 11.9179 26.826 12.0594 26.7884 12.1938C26.7556 12.4901 26.6129 12.7633 26.3885 12.9594C26.1641 13.1555 25.8742 13.2602 25.5763 13.253Z" fill="#179BD7"/>
<path d="M30.7958 8.00043H29.7038C29.6592 7.9973 29.615 8.0114 29.5805 8.03985C29.5459 8.06829 29.5236 8.1089 29.5182 8.1533L28.6446 14.0717C28.6398 14.0987 28.641 14.1264 28.6481 14.1528C28.6552 14.1792 28.6681 14.2038 28.6859 14.2247C28.7036 14.2455 28.7258 14.2622 28.7508 14.2736C28.7757 14.2848 28.8029 14.2905 28.8303 14.2901H29.7584C29.8325 14.2908 29.9043 14.2646 29.9605 14.2165C30.0168 14.1682 30.0536 14.1013 30.0642 14.028L30.9814 8.2079C30.9845 8.18176 30.9819 8.15525 30.9741 8.13014C30.9661 8.10504 30.9529 8.0819 30.9354 8.06228C30.9178 8.04265 30.8963 8.027 30.8722 8.01634C30.8482 8.00567 30.8221 8.00025 30.7958 8.00043Z" fill="#179BD7"/>
</g>
</g>
<defs>
<clipPath id="clip0_64_1790">
<rect width="32" height="24" rx="4" fill="white"/>
</clipPath>
</defs>
</svg>
