<svg width="20" height="21" viewBox="0 0 20 21" fill="none" xmlns="http://www.w3.org/2000/svg">
<path d="M14.5417 19.4582C13.6001 19.4582 12.6084 19.2332 11.5834 18.7998C10.5834 18.3748 9.57508 17.7915 8.59175 17.0832C7.61675 16.3665 6.67508 15.5665 5.78341 14.6915C4.90008 13.7998 4.10008 12.8582 3.39175 11.8915C2.67508 10.8915 2.10008 9.8915 1.69175 8.92484C1.25841 7.8915 1.04175 6.8915 1.04175 5.94984C1.04175 5.29984 1.15841 4.68317 1.38341 4.10817C1.61675 3.5165 1.99175 2.9665 2.50008 2.4915C3.14175 1.85817 3.87508 1.5415 4.65841 1.5415C4.98341 1.5415 5.31675 1.6165 5.60008 1.74984C5.92508 1.89984 6.20008 2.12484 6.40008 2.42484L8.33341 5.14984C8.50841 5.3915 8.64175 5.62484 8.73341 5.85817C8.84175 6.10817 8.90008 6.35817 8.90008 6.59984C8.90008 6.9165 8.80841 7.22484 8.63341 7.5165C8.50841 7.7415 8.31675 7.98317 8.07508 8.22484L7.50841 8.8165C7.51675 8.8415 7.52508 8.85817 7.53341 8.87484C7.63341 9.04984 7.83341 9.34984 8.21675 9.79984C8.62508 10.2665 9.00841 10.6915 9.39175 11.0832C9.88341 11.5665 10.2917 11.9498 10.6751 12.2665C11.1501 12.6665 11.4584 12.8665 11.6417 12.9582L11.6251 12.9998L12.2334 12.3998C12.4917 12.1415 12.7417 11.9498 12.9834 11.8248C13.4417 11.5415 14.0251 11.4915 14.6084 11.7332C14.8251 11.8248 15.0584 11.9498 15.3084 12.1248L18.0751 14.0915C18.3834 14.2998 18.6084 14.5665 18.7417 14.8832C18.8667 15.1998 18.9251 15.4915 18.9251 15.7832C18.9251 16.1832 18.8334 16.5832 18.6584 16.9582C18.4834 17.3332 18.2667 17.6582 17.9917 17.9582C17.5167 18.4832 17.0001 18.8582 16.4001 19.0998C15.8251 19.3332 15.2001 19.4582 14.5417 19.4582ZM4.65841 2.7915C4.20008 2.7915 3.77508 2.9915 3.36675 3.3915C2.98341 3.74984 2.71675 4.1415 2.55008 4.5665C2.37508 4.99984 2.29175 5.45817 2.29175 5.94984C2.29175 6.72484 2.47508 7.5665 2.84175 8.43317C3.21675 9.3165 3.74175 10.2332 4.40841 11.1498C5.07508 12.0665 5.83341 12.9582 6.66675 13.7998C7.50008 14.6248 8.40008 15.3915 9.32508 16.0665C10.2251 16.7248 11.1501 17.2582 12.0667 17.6415C13.4917 18.2498 14.8251 18.3915 15.9251 17.9332C16.3501 17.7582 16.7251 17.4915 17.0667 17.1082C17.2584 16.8998 17.4084 16.6748 17.5334 16.4082C17.6334 16.1998 17.6834 15.9832 17.6834 15.7665C17.6834 15.6332 17.6584 15.4998 17.5917 15.3498C17.5667 15.2998 17.5167 15.2082 17.3584 15.0998L14.5917 13.1332C14.4251 13.0165 14.2751 12.9332 14.1334 12.8748C13.9501 12.7998 13.8751 12.7248 13.5917 12.8998C13.4251 12.9832 13.2751 13.1082 13.1084 13.2748L12.4751 13.8998C12.1501 14.2165 11.6501 14.2915 11.2667 14.1498L11.0417 14.0498C10.7001 13.8665 10.3001 13.5832 9.85841 13.2082C9.45841 12.8665 9.02508 12.4665 8.50008 11.9498C8.09175 11.5332 7.68341 11.0915 7.25841 10.5998C6.86675 10.1415 6.58341 9.74984 6.40841 9.42484L6.30841 9.17484C6.25841 8.98317 6.24175 8.87484 6.24175 8.75817C6.24175 8.45817 6.35008 8.1915 6.55841 7.98317L7.18341 7.33317C7.35008 7.1665 7.47508 7.00817 7.55841 6.8665C7.62508 6.75817 7.65008 6.6665 7.65008 6.58317C7.65008 6.5165 7.62508 6.4165 7.58341 6.3165C7.52508 6.18317 7.43341 6.03317 7.31675 5.87484L5.38341 3.1415C5.30008 3.02484 5.20008 2.9415 5.07508 2.88317C4.94175 2.82484 4.80008 2.7915 4.65841 2.7915ZM11.6251 13.0082L11.4917 13.5748L11.7167 12.9915C11.6751 12.9832 11.6417 12.9915 11.6251 13.0082Z" fill="#CBCBCB"/>
<path d="M15.4165 8.62516C15.0749 8.62516 14.7915 8.34183 14.7915 8.00016C14.7915 7.70016 14.4915 7.07516 13.9915 6.54183C13.4999 6.01683 12.9582 5.7085 12.4999 5.7085C12.1582 5.7085 11.8749 5.42516 11.8749 5.0835C11.8749 4.74183 12.1582 4.4585 12.4999 4.4585C13.3082 4.4585 14.1582 4.89183 14.8999 5.6835C15.5915 6.42516 16.0415 7.3335 16.0415 8.00016C16.0415 8.34183 15.7582 8.62516 15.4165 8.62516Z" fill="#CBCBCB"/>
<path d="M18.3332 8.62484C17.9915 8.62484 17.7082 8.3415 17.7082 7.99984C17.7082 5.12484 15.3749 2.7915 12.4999 2.7915C12.1582 2.7915 11.8749 2.50817 11.8749 2.1665C11.8749 1.82484 12.1582 1.5415 12.4999 1.5415C16.0582 1.5415 18.9582 4.4415 18.9582 7.99984C18.9582 8.3415 18.6749 8.62484 18.3332 8.62484Z" fill="#CBCBCB"/>
</svg>
