<svg width="16" height="16" viewBox="0 0 16 16" fill="none" xmlns="http://www.w3.org/2000/svg">
<path d="M13.9999 4.48666C13.9866 4.48666 13.9666 4.48666 13.9466 4.48666C10.4199 4.13333 6.89994 3.99999 3.41328 4.35333L2.05328 4.48666C1.77328 4.51333 1.52661 4.31333 1.49994 4.03333C1.47328 3.75333 1.67328 3.51333 1.94661 3.48666L3.30661 3.35333C6.85328 2.99333 10.4466 3.13333 14.0466 3.48666C14.3199 3.51333 14.5199 3.75999 14.4933 4.03333C14.4733 4.29333 14.2533 4.48666 13.9999 4.48666Z" fill="#C91433"/>
<path d="M5.66651 3.81334C5.63984 3.81334 5.61318 3.81334 5.57984 3.80668C5.31318 3.76001 5.12651 3.50001 5.17318 3.23334L5.31984 2.36001C5.42651 1.72001 5.57318 0.833344 7.12651 0.833344H8.87318C10.4332 0.833344 10.5798 1.75334 10.6798 2.36668L10.8265 3.23334C10.8732 3.50668 10.6865 3.76668 10.4198 3.80668C10.1465 3.85334 9.88651 3.66668 9.84651 3.40001L9.69984 2.53334C9.60651 1.95334 9.58651 1.84001 8.87984 1.84001H7.13318C6.42651 1.84001 6.41318 1.93334 6.31318 2.52668L6.15984 3.39334C6.11984 3.64001 5.90651 3.81334 5.66651 3.81334Z" fill="#C91433"/>
<path d="M10.1401 15.1667H5.8601C3.53343 15.1667 3.4401 13.88 3.36676 12.84L2.93343 6.12666C2.91343 5.85332 3.12676 5.61332 3.4001 5.59332C3.6801 5.57999 3.91343 5.78666 3.93343 6.05999L4.36676 12.7733C4.4401 13.7867 4.46676 14.1667 5.8601 14.1667H10.1401C11.5401 14.1667 11.5668 13.7867 11.6334 12.7733L12.0668 6.05999C12.0868 5.78666 12.3268 5.57999 12.6001 5.59332C12.8734 5.61332 13.0868 5.84666 13.0668 6.12666L12.6334 12.84C12.5601 13.88 12.4668 15.1667 10.1401 15.1667Z" fill="#C91433"/>
<path d="M9.10672 11.5H6.88672C6.61339 11.5 6.38672 11.2733 6.38672 11C6.38672 10.7267 6.61339 10.5 6.88672 10.5H9.10672C9.38005 10.5 9.60672 10.7267 9.60672 11C9.60672 11.2733 9.38005 11.5 9.10672 11.5Z" fill="#C91433"/>
<path d="M9.66683 8.83334H6.3335C6.06016 8.83334 5.8335 8.60668 5.8335 8.33334C5.8335 8.06001 6.06016 7.83334 6.3335 7.83334H9.66683C9.94016 7.83334 10.1668 8.06001 10.1668 8.33334C10.1668 8.60668 9.94016 8.83334 9.66683 8.83334Z" fill="#C91433"/>
</svg>
