<svg width="20" height="20" viewBox="0 0 20 20" fill="none" xmlns="http://www.w3.org/2000/svg">
<path d="M12.2505 18.9583H7.75046C3.63379 18.9583 1.88379 17.2 1.88379 13.0917V9.35001C1.88379 9.00834 2.16712 8.72501 2.50879 8.72501C2.85046 8.72501 3.13379 9.00834 3.13379 9.35001V13.0917C3.13379 16.5 4.34212 17.7083 7.75046 17.7083H12.2421C15.6505 17.7083 16.8588 16.5 16.8588 13.0917V9.35001C16.8588 9.00834 17.1421 8.72501 17.4838 8.72501C17.8255 8.72501 18.1088 9.00834 18.1088 9.35001V13.0917C18.1171 17.2 16.3588 18.9583 12.2505 18.9583Z" fill="#0C68F4"/>
<path d="M10.0002 10.625C9.0835 10.625 8.25016 10.2667 7.6585 9.60832C7.06683 8.94999 6.79183 8.09166 6.8835 7.17499L7.44183 1.60832C7.47516 1.29166 7.74183 1.04166 8.06683 1.04166H11.9585C12.2835 1.04166 12.5502 1.28332 12.5835 1.60832L13.1418 7.17499C13.2335 8.09166 12.9585 8.94999 12.3668 9.60832C11.7502 10.2667 10.9168 10.625 10.0002 10.625ZM8.62516 2.29166L8.12516 7.29999C8.06683 7.85832 8.2335 8.38332 8.5835 8.76666C9.29183 9.54999 10.7085 9.54999 11.4168 8.76666C11.7668 8.37499 11.9335 7.84999 11.8752 7.29999L11.3752 2.29166H8.62516Z" fill="#0C68F4"/>
<path d="M15.258 10.625C13.5663 10.625 12.058 9.25832 11.883 7.57499L11.2997 1.73332C11.283 1.55832 11.3413 1.38332 11.458 1.24999C11.5747 1.11666 11.7413 1.04166 11.9247 1.04166H14.4663C16.9163 1.04166 18.058 2.06666 18.3997 4.58332L18.633 6.89999C18.733 7.88332 18.433 8.81666 17.7913 9.52499C17.1497 10.2333 16.2497 10.625 15.258 10.625ZM12.6163 2.29166L13.133 7.44999C13.2413 8.49166 14.208 9.37499 15.258 9.37499C15.8913 9.37499 16.458 9.13332 16.8663 8.69166C17.2663 8.24999 17.4497 7.65832 17.3913 7.02499L17.158 4.73332C16.8997 2.84999 16.2913 2.29166 14.4663 2.29166H12.6163V2.29166Z" fill="#0C68F4"/>
<path d="M4.69953 10.625C3.70786 10.625 2.80786 10.2333 2.1662 9.52499C1.52453 8.81666 1.22453 7.88332 1.32453 6.89999L1.54953 4.60832C1.89953 2.06666 3.0412 1.04166 5.4912 1.04166H8.03286C8.20786 1.04166 8.37453 1.11666 8.49953 1.24999C8.62453 1.38332 8.67453 1.55832 8.65786 1.73332L8.07453 7.57499C7.89953 9.25832 6.3912 10.625 4.69953 10.625ZM5.4912 2.29166C3.6662 2.29166 3.05786 2.84166 2.7912 4.74999L2.5662 7.02499C2.49953 7.65832 2.6912 8.24999 3.0912 8.69166C3.4912 9.13332 4.05786 9.37499 4.69953 9.37499C5.74953 9.37499 6.72453 8.49166 6.82453 7.44999L7.3412 2.29166H5.4912V2.29166Z" fill="#0C68F4"/>
<path d="M12.0837 18.9583H7.91699C7.57533 18.9583 7.29199 18.675 7.29199 18.3333V16.25C7.29199 14.5 8.25033 13.5417 10.0003 13.5417C11.7503 13.5417 12.7087 14.5 12.7087 16.25V18.3333C12.7087 18.675 12.4253 18.9583 12.0837 18.9583ZM8.54199 17.7083H11.4587V16.25C11.4587 15.2 11.0503 14.7917 10.0003 14.7917C8.95033 14.7917 8.54199 15.2 8.54199 16.25V17.7083Z" fill="#0C68F4"/>
</svg>
